<?xml version="1.0" encoding="UTF-8"?>
<!DOCTYPE svg PUBLIC "-//W3C//DTD SVG 1.1//EN" "http://www.w3.org/Graphics/SVG/1.1/DTD/svg11.dtd">
<svg version="1.1" xmlns="http://www.w3.org/2000/svg" xmlns:xlink="http://www.w3.org/1999/xlink" x="0" y="0" viewBox="0, 0, 145, 312">
  <g id="traffic-light" transform="translate(-260, -265)">
    <g id="enclosure">
      <path d="M276.5,268 L371.5,268 C378.127,268 383.5,273.373 383.5,280 L383.5,542 C383.5,548.627 378.127,554 371.5,554 L276.5,554 C269.873,554 264.5,548.627 264.5,542 L264.5,280 C264.5,273.373 269.873,268 276.5,268 z" fill="#929292"/>
      <path d="M276.5,268 L371.5,268 C378.127,268 383.5,273.373 383.5,280 L383.5,542 C383.5,548.627 378.127,554 371.5,554 L276.5,554 C269.873,554 264.5,548.627 264.5,542 L264.5,280 C264.5,273.373 269.873,268 276.5,268 z" fill-opacity="0" stroke="#7D7D7D" stroke-width="6"/>
    </g>
    <path id="red-bulb" d="M323.5,361 C303.894,361 288,345.106 288,325.5 C288,305.894 303.894,290 323.5,290 C343.106,290 359,305.894 359,325.5 C359,345.106 343.106,361 323.5,361 z" fill="#7D7D7D"/>
    <path id="yellow-bulb" d="M323.5,446 C303.894,446 288,430.106 288,410.5 C288,390.894 303.894,375 323.5,375 C343.106,375 359,390.894 359,410.5 C359,430.106 343.106,446 323.5,446 z" fill="#7D7D7D"/>
    <path id="green-bulb" d="M323.5,530 C303.894,530 288,514.106 288,494.5 C288,474.894 303.894,459 323.5,459 C343.106,459 359,474.894 359,494.5 C359,514.106 343.106,530 323.5,530 z" fill="#7D7D7D"/>
  </g>
</svg>
